<mxfile host="app.diagrams.net" modified="2023-08-28T07:12:26.068Z" agent="Mozilla/5.0 (Windows NT 10.0; Win64; x64) AppleWebKit/537.36 (KHTML, like Gecko) Chrome/116.0.0.0 Safari/537.36" etag="mVuZIYC__NrCI-n3YBV3" version="21.6.9" type="device">
  <diagram name="페이지-1" id="ZBjY61cPAAwv7-tVMVu5">
    <mxGraphModel dx="989" dy="545" grid="1" gridSize="10" guides="1" tooltips="1" connect="1" arrows="1" fold="1" page="1" pageScale="1" pageWidth="827" pageHeight="1169" math="0" shadow="0">
      <root>
        <mxCell id="0" />
        <mxCell id="1" parent="0" />
        <mxCell id="PDebWkfprd-jfZV3uZTO-3" style="edgeStyle=orthogonalEdgeStyle;rounded=0;orthogonalLoop=1;jettySize=auto;html=1;exitX=0.5;exitY=1;exitDx=0;exitDy=0;entryX=0.5;entryY=0;entryDx=0;entryDy=0;" edge="1" parent="1" source="PDebWkfprd-jfZV3uZTO-1" target="PDebWkfprd-jfZV3uZTO-2">
          <mxGeometry relative="1" as="geometry" />
        </mxCell>
        <mxCell id="PDebWkfprd-jfZV3uZTO-5" style="edgeStyle=orthogonalEdgeStyle;rounded=0;orthogonalLoop=1;jettySize=auto;html=1;exitX=1;exitY=0.5;exitDx=0;exitDy=0;entryX=0;entryY=0.5;entryDx=0;entryDy=0;" edge="1" parent="1" source="PDebWkfprd-jfZV3uZTO-1" target="PDebWkfprd-jfZV3uZTO-4">
          <mxGeometry relative="1" as="geometry" />
        </mxCell>
        <mxCell id="PDebWkfprd-jfZV3uZTO-7" style="edgeStyle=orthogonalEdgeStyle;rounded=0;orthogonalLoop=1;jettySize=auto;html=1;exitX=0.5;exitY=0;exitDx=0;exitDy=0;entryX=0.5;entryY=1;entryDx=0;entryDy=0;" edge="1" parent="1" source="PDebWkfprd-jfZV3uZTO-1" target="PDebWkfprd-jfZV3uZTO-6">
          <mxGeometry relative="1" as="geometry" />
        </mxCell>
        <mxCell id="PDebWkfprd-jfZV3uZTO-9" style="edgeStyle=orthogonalEdgeStyle;rounded=0;orthogonalLoop=1;jettySize=auto;html=1;exitX=0;exitY=0.5;exitDx=0;exitDy=0;entryX=1;entryY=0.5;entryDx=0;entryDy=0;" edge="1" parent="1" source="PDebWkfprd-jfZV3uZTO-1" target="PDebWkfprd-jfZV3uZTO-8">
          <mxGeometry relative="1" as="geometry" />
        </mxCell>
        <mxCell id="PDebWkfprd-jfZV3uZTO-13" style="edgeStyle=orthogonalEdgeStyle;rounded=0;orthogonalLoop=1;jettySize=auto;html=1;exitX=0.75;exitY=1;exitDx=0;exitDy=0;entryX=0.5;entryY=0;entryDx=0;entryDy=0;" edge="1" parent="1" source="PDebWkfprd-jfZV3uZTO-1" target="PDebWkfprd-jfZV3uZTO-12">
          <mxGeometry relative="1" as="geometry" />
        </mxCell>
        <mxCell id="PDebWkfprd-jfZV3uZTO-1" value="Number Puzzle" style="rounded=1;whiteSpace=wrap;html=1;" vertex="1" parent="1">
          <mxGeometry x="380" y="260" width="120" height="60" as="geometry" />
        </mxCell>
        <mxCell id="PDebWkfprd-jfZV3uZTO-11" style="edgeStyle=orthogonalEdgeStyle;rounded=0;orthogonalLoop=1;jettySize=auto;html=1;exitX=0.5;exitY=1;exitDx=0;exitDy=0;entryX=0.5;entryY=0;entryDx=0;entryDy=0;" edge="1" parent="1" source="PDebWkfprd-jfZV3uZTO-2" target="PDebWkfprd-jfZV3uZTO-10">
          <mxGeometry relative="1" as="geometry" />
        </mxCell>
        <mxCell id="PDebWkfprd-jfZV3uZTO-2" value="퍼즐의 총 크기" style="rounded=1;whiteSpace=wrap;html=1;" vertex="1" parent="1">
          <mxGeometry x="380" y="360" width="120" height="60" as="geometry" />
        </mxCell>
        <mxCell id="PDebWkfprd-jfZV3uZTO-23" style="edgeStyle=orthogonalEdgeStyle;rounded=0;orthogonalLoop=1;jettySize=auto;html=1;exitX=0.5;exitY=0;exitDx=0;exitDy=0;entryX=0.75;entryY=1;entryDx=0;entryDy=0;" edge="1" parent="1" source="PDebWkfprd-jfZV3uZTO-4" target="PDebWkfprd-jfZV3uZTO-20">
          <mxGeometry relative="1" as="geometry" />
        </mxCell>
        <mxCell id="PDebWkfprd-jfZV3uZTO-4" value="몇 번 섞이는가?&lt;br&gt;섞는 횟수" style="rounded=1;whiteSpace=wrap;html=1;" vertex="1" parent="1">
          <mxGeometry x="540" y="260" width="120" height="60" as="geometry" />
        </mxCell>
        <mxCell id="PDebWkfprd-jfZV3uZTO-17" style="edgeStyle=orthogonalEdgeStyle;rounded=0;orthogonalLoop=1;jettySize=auto;html=1;exitX=0.5;exitY=0;exitDx=0;exitDy=0;entryX=0.5;entryY=1;entryDx=0;entryDy=0;" edge="1" parent="1" source="PDebWkfprd-jfZV3uZTO-6" target="PDebWkfprd-jfZV3uZTO-16">
          <mxGeometry relative="1" as="geometry" />
        </mxCell>
        <mxCell id="PDebWkfprd-jfZV3uZTO-22" style="edgeStyle=orthogonalEdgeStyle;rounded=0;orthogonalLoop=1;jettySize=auto;html=1;exitX=0;exitY=0.5;exitDx=0;exitDy=0;entryX=1;entryY=0.5;entryDx=0;entryDy=0;" edge="1" parent="1" source="PDebWkfprd-jfZV3uZTO-6" target="PDebWkfprd-jfZV3uZTO-20">
          <mxGeometry relative="1" as="geometry" />
        </mxCell>
        <mxCell id="PDebWkfprd-jfZV3uZTO-33" style="edgeStyle=orthogonalEdgeStyle;rounded=0;orthogonalLoop=1;jettySize=auto;html=1;exitX=1;exitY=0.5;exitDx=0;exitDy=0;entryX=0;entryY=0.25;entryDx=0;entryDy=0;" edge="1" parent="1" source="PDebWkfprd-jfZV3uZTO-6" target="PDebWkfprd-jfZV3uZTO-28">
          <mxGeometry relative="1" as="geometry">
            <mxPoint x="520" y="130" as="targetPoint" />
          </mxGeometry>
        </mxCell>
        <mxCell id="PDebWkfprd-jfZV3uZTO-6" value="움직일 숫자" style="rounded=1;whiteSpace=wrap;html=1;" vertex="1" parent="1">
          <mxGeometry x="380" y="160" width="120" height="60" as="geometry" />
        </mxCell>
        <mxCell id="PDebWkfprd-jfZV3uZTO-15" style="edgeStyle=orthogonalEdgeStyle;rounded=0;orthogonalLoop=1;jettySize=auto;html=1;exitX=0;exitY=0.5;exitDx=0;exitDy=0;entryX=1;entryY=0.5;entryDx=0;entryDy=0;" edge="1" parent="1" source="PDebWkfprd-jfZV3uZTO-8" target="PDebWkfprd-jfZV3uZTO-14">
          <mxGeometry relative="1" as="geometry" />
        </mxCell>
        <mxCell id="PDebWkfprd-jfZV3uZTO-21" style="edgeStyle=orthogonalEdgeStyle;rounded=0;orthogonalLoop=1;jettySize=auto;html=1;exitX=0.5;exitY=0;exitDx=0;exitDy=0;entryX=0.5;entryY=1;entryDx=0;entryDy=0;" edge="1" parent="1" source="PDebWkfprd-jfZV3uZTO-8" target="PDebWkfprd-jfZV3uZTO-20">
          <mxGeometry relative="1" as="geometry" />
        </mxCell>
        <mxCell id="PDebWkfprd-jfZV3uZTO-8" value="상하좌우 버튼" style="rounded=1;whiteSpace=wrap;html=1;" vertex="1" parent="1">
          <mxGeometry x="220" y="260" width="120" height="60" as="geometry" />
        </mxCell>
        <mxCell id="PDebWkfprd-jfZV3uZTO-19" style="edgeStyle=orthogonalEdgeStyle;rounded=0;orthogonalLoop=1;jettySize=auto;html=1;exitX=0.5;exitY=1;exitDx=0;exitDy=0;entryX=0.5;entryY=0;entryDx=0;entryDy=0;" edge="1" parent="1" source="PDebWkfprd-jfZV3uZTO-10" target="PDebWkfprd-jfZV3uZTO-18">
          <mxGeometry relative="1" as="geometry" />
        </mxCell>
        <mxCell id="PDebWkfprd-jfZV3uZTO-10" value="퍼즐판 자체" style="rounded=1;whiteSpace=wrap;html=1;" vertex="1" parent="1">
          <mxGeometry x="380" y="460" width="120" height="60" as="geometry" />
        </mxCell>
        <mxCell id="PDebWkfprd-jfZV3uZTO-12" value="종료 조건" style="rounded=1;whiteSpace=wrap;html=1;" vertex="1" parent="1">
          <mxGeometry x="540" y="360" width="120" height="60" as="geometry" />
        </mxCell>
        <mxCell id="PDebWkfprd-jfZV3uZTO-14" value="리셋 버튼" style="rounded=1;whiteSpace=wrap;html=1;" vertex="1" parent="1">
          <mxGeometry x="60" y="260" width="120" height="60" as="geometry" />
        </mxCell>
        <mxCell id="PDebWkfprd-jfZV3uZTO-32" style="edgeStyle=orthogonalEdgeStyle;rounded=0;orthogonalLoop=1;jettySize=auto;html=1;exitX=1;exitY=0.5;exitDx=0;exitDy=0;entryX=0;entryY=0.25;entryDx=0;entryDy=0;" edge="1" parent="1" source="PDebWkfprd-jfZV3uZTO-16" target="PDebWkfprd-jfZV3uZTO-28">
          <mxGeometry relative="1" as="geometry" />
        </mxCell>
        <mxCell id="PDebWkfprd-jfZV3uZTO-16" value="움직일 숫자 위치" style="rounded=1;whiteSpace=wrap;html=1;" vertex="1" parent="1">
          <mxGeometry x="380" y="60" width="120" height="60" as="geometry" />
        </mxCell>
        <mxCell id="PDebWkfprd-jfZV3uZTO-18" value="퍼즐판 출력" style="rounded=1;whiteSpace=wrap;html=1;" vertex="1" parent="1">
          <mxGeometry x="380" y="560" width="120" height="60" as="geometry" />
        </mxCell>
        <mxCell id="PDebWkfprd-jfZV3uZTO-20" value="숫자의 이동" style="rounded=1;whiteSpace=wrap;html=1;" vertex="1" parent="1">
          <mxGeometry x="220" y="160" width="120" height="60" as="geometry" />
        </mxCell>
        <mxCell id="PDebWkfprd-jfZV3uZTO-28" value="Player" style="swimlane;fontStyle=1;align=center;verticalAlign=top;childLayout=stackLayout;horizontal=1;startSize=26;horizontalStack=0;resizeParent=1;resizeParentMax=0;resizeLast=0;collapsible=1;marginBottom=0;whiteSpace=wrap;html=1;" vertex="1" parent="1">
          <mxGeometry x="540" y="60" width="160" height="112" as="geometry" />
        </mxCell>
        <mxCell id="PDebWkfprd-jfZV3uZTO-29" value="- x : int" style="text;strokeColor=none;fillColor=none;align=left;verticalAlign=top;spacingLeft=4;spacingRight=4;overflow=hidden;rotatable=0;points=[[0,0.5],[1,0.5]];portConstraint=eastwest;whiteSpace=wrap;html=1;" vertex="1" parent="PDebWkfprd-jfZV3uZTO-28">
          <mxGeometry y="26" width="160" height="26" as="geometry" />
        </mxCell>
        <mxCell id="PDebWkfprd-jfZV3uZTO-34" value="- y : int" style="text;strokeColor=none;fillColor=none;align=left;verticalAlign=top;spacingLeft=4;spacingRight=4;overflow=hidden;rotatable=0;points=[[0,0.5],[1,0.5]];portConstraint=eastwest;whiteSpace=wrap;html=1;" vertex="1" parent="PDebWkfprd-jfZV3uZTO-28">
          <mxGeometry y="52" width="160" height="26" as="geometry" />
        </mxCell>
        <mxCell id="PDebWkfprd-jfZV3uZTO-30" value="" style="line;strokeWidth=1;fillColor=none;align=left;verticalAlign=middle;spacingTop=-1;spacingLeft=3;spacingRight=3;rotatable=0;labelPosition=right;points=[];portConstraint=eastwest;strokeColor=inherit;" vertex="1" parent="PDebWkfprd-jfZV3uZTO-28">
          <mxGeometry y="78" width="160" height="8" as="geometry" />
        </mxCell>
        <mxCell id="PDebWkfprd-jfZV3uZTO-31" value="+ get, set" style="text;strokeColor=none;fillColor=none;align=left;verticalAlign=top;spacingLeft=4;spacingRight=4;overflow=hidden;rotatable=0;points=[[0,0.5],[1,0.5]];portConstraint=eastwest;whiteSpace=wrap;html=1;" vertex="1" parent="PDebWkfprd-jfZV3uZTO-28">
          <mxGeometry y="86" width="160" height="26" as="geometry" />
        </mxCell>
        <mxCell id="PDebWkfprd-jfZV3uZTO-37" style="edgeStyle=orthogonalEdgeStyle;rounded=0;orthogonalLoop=1;jettySize=auto;html=1;exitX=1;exitY=0.5;exitDx=0;exitDy=0;" edge="1" parent="1" source="PDebWkfprd-jfZV3uZTO-35">
          <mxGeometry relative="1" as="geometry">
            <mxPoint x="779.9999999999998" y="130.1724137931035" as="targetPoint" />
          </mxGeometry>
        </mxCell>
        <mxCell id="PDebWkfprd-jfZV3uZTO-35" value="Vertical Container" style="swimlane;whiteSpace=wrap;html=1;" vertex="1" parent="1">
          <mxGeometry x="370" y="30" width="340" height="200" as="geometry" />
        </mxCell>
        <mxCell id="PDebWkfprd-jfZV3uZTO-36" value="Moving" style="swimlane;whiteSpace=wrap;html=1;" vertex="1" parent="1">
          <mxGeometry x="730" y="30" width="340" height="200" as="geometry" />
        </mxCell>
        <mxCell id="PDebWkfprd-jfZV3uZTO-38" value="player" style="rounded=1;whiteSpace=wrap;html=1;" vertex="1" parent="PDebWkfprd-jfZV3uZTO-36">
          <mxGeometry x="50" y="70" width="120" height="60" as="geometry" />
        </mxCell>
      </root>
    </mxGraphModel>
  </diagram>
</mxfile>
